<?xml version="1.0" encoding="UTF-8"?>
<svg version="1.1" xmlns="http://www.w3.org/2000/svg" width="400" height="400">
<path d="M0 0 C132 0 264 0 400 0 C400 132 400 264 400 400 C268 400 136 400 0 400 C0 268 0 136 0 0 Z " fill="#1675B8" transform="translate(0,0)"/>
<path d="M0 0 C12.89233538 -0.11639588 25.78454357 -0.20496867 38.6772995 -0.25906086 C44.66542767 -0.28503639 50.65319354 -0.32021248 56.64111328 -0.37719727 C62.43130501 -0.43194883 68.22115058 -0.46151085 74.01158142 -0.47438622 C76.20895325 -0.48354918 78.40630843 -0.50143994 80.60353088 -0.52865028 C95.96777863 -0.71116933 111.96185028 -0.66978851 124.17578125 10.125 C131.88298046 18.04674651 136.13672081 26.12716556 136.5625 37.3125 C136.25002638 47.62412932 133.16256191 56.85757812 125.8984375 64.34375 C121.48372379 68.19526978 117.96885653 71 112 71 C112 71.66 112 72.32 112 73 C112.825 73.061875 113.65 73.12375 114.5 73.1875 C124.05815251 75.40635683 130.24985932 82.51553276 135.61328125 90.359375 C140.73308025 99.64712305 140.40203721 111.20912703 138.30078125 121.38671875 C135.02087091 131.30948547 128.52143678 139.13604443 119.3125 144.125 C107.39615948 149.51139974 96.07305649 149.39903175 83.23828125 149.29296875 C81.23618388 149.28736439 79.23408235 149.28309827 77.23197937 149.28010559 C71.99590433 149.26872294 66.76008414 149.23931322 61.52410889 149.20599365 C56.16780035 149.17515001 50.81145012 149.16156987 45.45507812 149.14648438 C34.96994092 149.11443654 24.48499176 149.06332089 14 149 C14.0040642 148.33076885 14.0081284 147.6615377 14.01231575 146.97202682 C14.10801228 130.64438917 14.14801152 114.31764378 14.12697029 97.98975754 C14.11812021 90.09342228 14.12772042 82.19793458 14.18164062 74.30175781 C14.22862224 67.41468427 14.24008409 60.52859517 14.2099179 53.64141202 C14.19517492 49.99844116 14.1975215 46.35738615 14.24249649 42.7146225 C15.32886001 24.87415222 15.32886001 24.87415222 8.11279297 9.43457031 C6.42676685 7.93561108 4.72441798 6.45462899 3 5 C1.18045044 2.22283936 1.18045044 2.22283936 0 0 Z " fill="#FCFDFE" transform="translate(66,125)"/>
<path d="M0 0 C36.96 0 73.92 0 112 0 C112 30.89300595 112 30.89300595 100.4375 43.0859375 C96.20957976 47.6983798 92.51695289 52.54400613 88.875 57.625 C87.72555158 59.19387688 86.57451495 60.76159141 85.421875 62.328125 C84.28102348 63.88525073 83.14039803 65.44254212 82 67 C73.96162337 77.97812579 65.83642115 88.8785078 57.5703125 99.68652344 C52.22717897 106.67958703 46.88359695 113.67460458 42 121 C65.76 121 89.52 121 114 121 C114 130.24 114 139.48 114 149 C76.38 149 38.76 149 0 149 C0 119.26443662 0 119.26443662 6.8984375 112.1328125 C7.39956055 111.64586914 7.90068359 111.15892578 8.41699219 110.65722656 C11.5640203 107.36265117 14.09864282 103.56988995 16.75 99.875 C17.95135876 98.23568333 19.15450188 96.59767291 20.359375 94.9609375 C20.96201172 94.13948242 21.56464844 93.31802734 22.18554688 92.47167969 C25.11805746 88.47696263 28.05936661 84.48873912 31 80.5 C32.16671111 78.91669941 33.33337772 77.33336604 34.5 75.75 C36.83333333 72.58333333 39.16666667 69.41666667 41.5 66.25 C42.36757935 65.07256226 42.36757935 65.07256226 43.25268555 63.87133789 C44.41037815 62.3001952 45.56809271 60.72906869 46.72583008 59.15795898 C49.7799874 55.01324654 52.83367646 50.86819012 55.88671875 46.72265625 C56.52287109 45.85898438 57.15902344 44.9953125 57.81445312 44.10546875 C59.03334382 42.45062445 60.25210088 40.79568172 61.47070312 39.140625 C62.02048828 38.39425781 62.57027344 37.64789063 63.13671875 36.87890625 C63.61842529 36.2247876 64.10013184 35.57066895 64.59643555 34.89672852 C66.05568211 32.92475313 67.52809257 30.96254324 69 29 C46.23 28.67 23.46 28.34 0 28 C0 18.76 0 9.52 0 0 Z " fill="#FCFDFE" transform="translate(216,125)"/>
<path d="M0 0 C6.54774915 -0.09207772 13.09323137 -0.17164401 19.64111328 -0.21972656 C21.86612582 -0.23978046 24.09108607 -0.26703065 26.31591797 -0.30175781 C29.52324365 -0.35054934 32.72986951 -0.37303162 35.9375 -0.390625 C36.92427734 -0.41127014 37.91105469 -0.43191528 38.92773438 -0.45318604 C46.83516584 -0.45572655 51.88827398 1.47172261 58 6.4375 C61.5522165 11.15773344 60.71941999 17.45216504 60 23 C59.03421929 26.67250822 57.48582544 29.06608875 54.1733551 31.14813232 C47.94989865 34.09392098 42.663742 34.53414379 35.83984375 34.390625 C34.29412437 34.38213531 34.29412437 34.38213531 32.71717834 34.37347412 C29.45679371 34.35125474 26.19754708 34.30108508 22.9375 34.25 C20.71420869 34.22991636 18.49089998 34.21166887 16.26757812 34.1953125 C10.84427117 34.15485516 5.42339485 34.07653556 0 34 C0 22.78 0 11.56 0 0 Z " fill="#2485C6" transform="translate(112,212)"/>
<path d="M0 0 C6.26295179 -0.09210223 12.52353031 -0.17165986 18.78662109 -0.21972656 C20.91463202 -0.23977468 23.04258832 -0.26702054 25.17041016 -0.30175781 C28.23874433 -0.35057548 31.30634673 -0.37303726 34.375 -0.390625 C35.78954468 -0.42159271 35.78954468 -0.42159271 37.23266602 -0.45318604 C43.25522912 -0.45520703 48.04434743 0.3958042 53 4 C55.91332231 7.39531133 57.22334544 10.58238656 57.4375 15.0625 C56.81102179 20.70080393 55.22298879 24.1452113 50.9375 27.8125 C47.36517756 30.47274011 45.88886516 31.12537941 41.55029297 31.11352539 C40.62948944 31.11344986 39.70868591 31.11337433 38.75997925 31.11329651 C37.26617233 31.10555458 37.26617233 31.10555458 35.7421875 31.09765625 C34.72399933 31.0962413 33.70581116 31.09482635 32.6567688 31.09336853 C29.39614965 31.087759 26.13559849 31.07520488 22.875 31.0625 C20.66796974 31.05748623 18.46093841 31.05292311 16.25390625 31.04882812 C10.83589006 31.03863622 5.41802138 31.01906262 0 31 C0 20.77 0 10.54 0 0 Z " fill="#2284C5" transform="translate(113,153)"/>
<path d="M0 0 C0.33 0.66 0.66 1.32 1 2 C34.165 2.495 34.165 2.495 68 3 C68.495 3.99 68.495 3.99 69 5 C45.24 5 21.48 5 -3 5 C-1 1 -1 1 0 0 Z " fill="#1D7EC1" transform="translate(261,241)"/>
<path d="M0 0 C-0.33 0.99 -0.66 1.98 -1 3 C-3.97 2.505 -3.97 2.505 -7 2 C-7 1.34 -7 0.68 -7 0 C-3.98968256 -0.93423645 -3.13349732 -1.04449911 0 0 Z " fill="#3793CF" transform="translate(185,196)"/>
</svg>
