<?xml version="1.0" encoding="UTF-8"?>
<svg version="1.1" xmlns="http://www.w3.org/2000/svg" width="500" height="500">
<path d="M0 0 C165 0 330 0 500 0 C500 165 500 330 500 500 C335 500 170 500 0 500 C0 335 0 170 0 0 Z " fill="#FEFEFE" transform="translate(0,0)"/>
<path d="M0 0 C8.2508742 5.02227125 11.81149098 10.40851015 14.23779297 19.64477539 C15.30079634 24.82498226 15.40569187 29.91334419 15.375 35.1875 C15.37145508 36.28481445 15.36791016 37.38212891 15.36425781 38.51269531 C15.1473854 49.07029571 12.98774488 56.683591 5.875 64.75 C-1.61650715 70.52916265 -10.00338536 70.82133058 -19.125 69.75 C-25.78776545 68.06864383 -30.39554469 63.3689141 -34.125 57.75 C-35.46332095 54.80863526 -36.3913989 51.89319856 -37.125 48.75 C-37.30804688 48.01136719 -37.49109375 47.27273438 -37.6796875 46.51171875 C-39.7145074 33.89226551 -39.05910449 18.95802304 -32.5625 7.75 C-25.17090565 -2.03935545 -11.27393188 -4.44049834 0 0 Z " fill="#070707" transform="translate(160.125,255.25)"/>
<path d="M0 0 C4.80133868 -0.12473502 9.60170955 -0.21486503 14.40429688 -0.2746582 C16.03369603 -0.29961442 17.66298542 -0.33359254 19.29199219 -0.37719727 C29.80232361 -0.65123965 38.41776605 -0.65545824 46.8137207 6.55834961 C54.10224093 14.15151705 54.55745152 23.70543841 54.5 33.75 C54.49427979 34.90145508 54.48855957 36.05291016 54.48266602 37.23925781 C54.27283514 47.21788151 53.26412409 56.30354576 45.75 63.625 C36.51587262 69.88797928 26.65757751 69.36966227 15.9375 69.1875 C14.38868489 69.17242519 12.83985559 69.15874173 11.29101562 69.14648438 C7.52698822 69.11370138 3.76365362 69.06207498 0 69 C0 67.35 0 65.7 0 64 C1.65 64 3.3 64 5 64 C5 44.53 5 25.06 5 5 C3.35 5 1.7 5 0 5 C0 3.35 0 1.7 0 0 Z " fill="#040404" transform="translate(93,171)"/>
<path d="M0 0 C14.85 0 29.7 0 45 0 C45 23.1 45 46.2 45 70 C30.15 70 15.3 70 0 70 C0 46.9 0 23.8 0 0 Z " fill="#D12701" transform="translate(40,171)"/>
<path d="M0 0 C4.94375668 -0.12468733 9.88657507 -0.2148439 14.83154297 -0.2746582 C16.50943977 -0.29962211 18.18722986 -0.33360619 19.86474609 -0.37719727 C38.25599788 -0.84272925 38.25599788 -0.84272925 46 5 C50.99649494 10.2402264 51.35333337 13.95249627 51.27734375 21.01953125 C50.769034 26.48207122 47.86017927 29.34958613 43.9375 32.8125 C41 35 41 35 38 36 C39.38371053 44.17254034 43.67338464 50.89173764 48.4375 57.5625 C49.15808594 58.57441406 49.87867188 59.58632813 50.62109375 60.62890625 C53.42713798 63.42573523 55.10865442 63.77043861 59 64 C59 65.65 59 67.3 59 69 C53.67079863 69.76505099 48.26114882 70.47474572 43 69 C38.73162665 65.37218198 36.48741885 60.9080369 34 56 C33.24494851 54.63114145 32.48444897 53.26527499 31.71875 51.90234375 C26.49605495 42.48816485 26.49605495 42.48816485 25 38 C22.36 37.67 19.72 37.34 17 37 C17 45.91 17 54.82 17 64 C18.65 64 20.3 64 22 64 C22 65.65 22 67.3 22 69 C14.74 69 7.48 69 0 69 C0 67.35 0 65.7 0 64 C1.65 64 3.3 64 5 64 C5 44.53 5 25.06 5 5 C3.35 5 1.7 5 0 5 C0 3.35 0 1.7 0 0 Z " fill="#050505" transform="translate(238,255)"/>
<path d="M0 0 C5.33237611 -0.88327702 10.75502227 -1.68785749 16 0 C19.74176921 3.73086026 21.68825371 7.9098167 23.87988281 12.671875 C25.89527965 16.86080792 28.32363096 20.81348541 30.6875 24.8125 C31.56786966 26.3390007 32.44680516 27.86632953 33.32421875 29.39453125 C36.16893113 34.29075883 39.08659842 39.1443307 42 44 C42.33 31.13 42.66 18.26 43 5 C41.35 5 39.7 5 38 5 C38 3.35 38 1.7 38 0 C42.95 0 47.9 0 53 0 C53 1.65 53 3.3 53 5 C51.35 5 49.7 5 48 5 C48 26.12 48 47.24 48 69 C46.02 69 44.04 69 42 69 C40.14496637 66.68362757 38.91149465 64.72441914 37.5625 62.125 C36.70649915 60.57509533 35.84967164 59.02564703 34.9921875 57.4765625 C34.52393555 56.61321289 34.05568359 55.74986328 33.57324219 54.86035156 C30.54302386 49.3510347 27.34635629 43.93620713 24.1875 38.5 C22.92935473 36.32386105 21.67278284 34.1468115 20.41796875 31.96875 C19.87938232 31.03482422 19.3407959 30.10089844 18.78588867 29.13867188 C16.49340268 25.10966301 14.25122631 21.05220736 12 17 C11.67 32.51 11.34 48.02 11 64 C12.32 64 13.64 64 15 64 C15 65.65 15 67.3 15 69 C10.05 69 5.1 69 0 69 C0 67.35 0 65.7 0 64 C1.65 64 3.3 64 5 64 C5 44.53 5 25.06 5 5 C3.35 5 1.7 5 0 5 C0 3.35 0 1.7 0 0 Z " fill="#060606" transform="translate(300,255)"/>
<path d="M0 0 C5.59896302 3.06358354 7.11693931 6.86096619 9.16870117 12.75219727 C10.67923897 18.65371982 10.57521859 24.50426978 10.5 30.5625 C10.51546875 31.81224609 10.5309375 33.06199219 10.546875 34.34960938 C10.50642355 43.97199808 9.07749852 52.92250148 2 60 C-1.72228784 61.24076261 -5.13282398 61.52975014 -9 61 C-13.77481058 58.34732745 -15.17948133 55.02809918 -17 50 C-17.3508667 49.05664795 -17.7017334 48.1132959 -18.06323242 47.14135742 C-19.62063735 41.91875402 -19.32780004 36.72565526 -19.3125 31.3125 C-19.32861328 30.19166016 -19.34472656 29.07082031 -19.36132812 27.91601562 C-19.36624443 19.44522064 -18.96161034 10.24366177 -13.4375 3.375 C-9.31103586 -0.64565737 -5.57567624 -0.78040662 0 0 Z " fill="#FBFBFB" transform="translate(153,259)"/>
<path d="M0 0 C1.68757855 0.94174444 3.30997823 1.99831882 4.91796875 3.0703125 C5.4296875 6.109375 5.4296875 6.109375 5.60546875 9.6953125 C5.70408203 11.47808594 5.70408203 11.47808594 5.8046875 13.296875 C5.86076172 14.66972656 5.86076172 14.66972656 5.91796875 16.0703125 C3.93796875 16.0703125 1.95796875 16.0703125 -0.08203125 16.0703125 C-0.32953125 14.8328125 -0.57703125 13.5953125 -0.83203125 12.3203125 C-1.77336675 8.54829434 -2.9084469 6.47454307 -6.08203125 4.0703125 C-10.7390657 2.51796768 -15.2229294 2.49251099 -20.08203125 3.0703125 C-25.77710273 6.07316837 -27.17574165 9.96274365 -29.24633789 15.8894043 C-30.70310597 21.43431556 -30.65899169 26.86882636 -30.58203125 32.5703125 C-30.5975 33.71628906 -30.61296875 34.86226562 -30.62890625 36.04296875 C-30.59371445 43.77636671 -29.27432672 50.02831007 -26.08203125 57.0703125 C-25.61506836 58.18116211 -25.61506836 58.18116211 -25.13867188 59.31445312 C-24.13429641 61.41388967 -24.13429641 61.41388967 -21.08203125 62.0703125 C-19.48209682 62.21350801 -17.87558813 62.29070776 -16.26953125 62.3203125 C-15.43808594 62.34609375 -14.60664063 62.371875 -13.75 62.3984375 C-10.37307199 62.13419427 -10.37307199 62.13419427 -5.08203125 59.0703125 C-4.75203125 53.1303125 -4.42203125 47.1903125 -4.08203125 41.0703125 C-6.39203125 41.0703125 -8.70203125 41.0703125 -11.08203125 41.0703125 C-11.08203125 39.4203125 -11.08203125 37.7703125 -11.08203125 36.0703125 C-3.82203125 36.0703125 3.43796875 36.0703125 10.91796875 36.0703125 C10.91796875 37.3903125 10.91796875 38.7103125 10.91796875 40.0703125 C9.59796875 40.0703125 8.27796875 40.0703125 6.91796875 40.0703125 C7.01078125 41.28847656 7.10359375 42.50664062 7.19921875 43.76171875 C7.87974253 56.41106919 7.87974253 56.41106919 5.3828125 60.71875 C3.27693888 62.57711247 1.44139674 63.83492641 -1.08203125 65.0703125 C-2.71011719 65.87662109 -2.71011719 65.87662109 -4.37109375 66.69921875 C-12.19205263 69.58885724 -22.04076351 69.51373473 -29.70703125 66.0703125 C-34.36534505 63.31767253 -37.35985815 59.69616747 -40.08203125 55.0703125 C-40.44296875 54.47347656 -40.80390625 53.87664062 -41.17578125 53.26171875 C-43.98453352 46.4698652 -43.33319025 38.46742476 -43.39453125 31.2578125 C-43.42353516 30.13310547 -43.45253906 29.00839844 -43.48242188 27.84960938 C-43.54998405 18.90541718 -41.78550884 12.28455697 -36.95703125 4.7578125 C-26.72045434 -4.81116157 -12.55484442 -5.83443717 0 0 Z " fill="#090909" transform="translate(219.08203125,172.9296875)"/>
<path d="M0 0 C1.98 0 3.96 0 6 0 C8.97588387 6.91602062 11.30298529 13.97167271 13.5078125 21.1640625 C15.33033203 27.1044086 17.22955942 33.02010099 19.125 38.9375 C19.46176758 39.99138916 19.79853516 41.04527832 20.14550781 42.13110352 C20.47131836 43.14873779 20.79712891 44.16637207 21.1328125 45.21484375 C21.44637695 46.19565918 21.75994141 47.17647461 22.08300781 48.18701172 C23.16249487 51.49847334 24.30601395 54.78559356 25.47998047 58.06469727 C26 60 26 60 26 64 C27.98 64 29.96 64 32 64 C32 65.65 32 67.3 32 69 C25.07 69 18.14 69 11 69 C11 67.35 11 65.7 11 64 C11.99 64 12.98 64 14 64 C13.6390625 62.95199219 13.278125 61.90398437 12.90625 60.82421875 C12.43726182 59.44539349 11.9685249 58.06648275 11.5 56.6875 C11.26152344 55.99720703 11.02304687 55.30691406 10.77734375 54.59570312 C9.76791737 51.61068511 9 49.17341086 9 46 C0.585 46.495 0.585 46.495 -8 47 C-9.65 52.61 -11.3 58.22 -13 64 C-12.01 64 -11.02 64 -10 64 C-10 65.65 -10 67.3 -10 69 C-14.62 69 -19.24 69 -24 69 C-24 67.35 -24 65.7 -24 64 C-22.35 64 -20.7 64 -19 64 C-18.8892514 63.38820389 -18.77850281 62.77640778 -18.66439819 62.14607239 C-17.52265087 56.11406301 -15.99816235 50.34632899 -14.1015625 44.51171875 C-13.82533051 43.64666214 -13.54909851 42.78160553 -13.26449585 41.89033508 C-12.38972857 39.15440248 -11.50763385 36.42090367 -10.625 33.6875 C-9.75333278 30.97104595 -8.88319472 28.25410519 -8.01312256 25.53713989 C-7.45214929 23.78600887 -6.89051595 22.03508915 -6.32818604 20.28439331 C-4.16366666 13.53941756 -2.0565446 6.77877763 0 0 Z " fill="#0A0A0A" transform="translate(328,171)"/>
<path d="M0 0 C1.98 0 3.96 0 6 0 C9.73742007 8.75321986 12.60404985 17.75748795 15.5 26.8125 C15.97756183 28.29501944 16.45542481 29.7774419 16.93359375 31.25976562 C18.30008617 35.50303314 19.65427155 39.75010399 21 44 C21.30532654 44.96354904 21.30532654 44.96354904 21.61682129 45.94656372 C22.18048713 47.73145706 22.73881895 49.51803228 23.296875 51.3046875 C23.60979492 52.30612793 23.92271484 53.30756836 24.24511719 54.33935547 C25.16204038 57.57112419 25.68927099 60.65966317 26 64 C27.98 64 29.96 64 32 64 C32 65.65 32 67.3 32 69 C25.07 69 18.14 69 11 69 C11 67.35 11 65.7 11 64 C11.99 64 12.98 64 14 64 C13.6390625 62.95199219 13.278125 61.90398437 12.90625 60.82421875 C12.43726182 59.44539349 11.9685249 58.06648275 11.5 56.6875 C11.26152344 55.99720703 11.02304687 55.30691406 10.77734375 54.59570312 C9.76791737 51.61068511 9 49.17341086 9 46 C0.585 46.495 0.585 46.495 -8 47 C-9.65 52.61 -11.3 58.22 -13 64 C-12.01 64 -11.02 64 -10 64 C-10 65.65 -10 67.3 -10 69 C-14.62 69 -19.24 69 -24 69 C-24 67.35 -24 65.7 -24 64 C-22.35 64 -20.7 64 -19 64 C-18.74605469 62.76765625 -18.49210937 61.5353125 -18.23046875 60.265625 C-16.90833754 54.32820142 -15.12163957 48.55428678 -13.3125 42.75 C-12.9623584 41.61771973 -12.6122168 40.48543945 -12.25146484 39.31884766 C-9.70205704 31.12374814 -7.04385851 22.96874035 -4.2590332 14.85058594 C-2.58705381 9.94049463 -1.19017728 5.0495871 0 0 Z " fill="#090909" transform="translate(380,255)"/>
<path d="M0 0 C6.93 0 13.86 0 21 0 C21 1.65 21 3.3 21 5 C19.68 5 18.36 5 17 5 C17.0927356 11.40487732 17.20009883 17.80939272 17.31738281 24.21386719 C17.35554216 26.39024366 17.39041724 28.56668041 17.421875 30.74316406 C17.46780969 33.8810777 17.5257566 37.0185811 17.5859375 40.15625 C17.59748871 41.12115356 17.60903992 42.08605713 17.62094116 43.0802002 C17.75978948 52.88928951 17.75978948 52.88928951 22 61.4375 C24.95397222 63.7452908 26.68271456 64.15683318 30.375 64.1875 C31.14585937 64.20167969 31.91671875 64.21585937 32.7109375 64.23046875 C35.31241055 63.9685457 36.82299467 63.44520016 39 62 C40.29274743 60.24705632 40.29274743 60.24705632 41.1875 58.1875 C41.51105469 57.52105469 41.83460938 56.85460937 42.16796875 56.16796875 C44.32632093 50.54409335 44.21035789 44.83012356 44.31640625 38.88671875 C44.33718735 37.91716751 44.35796844 36.94761627 44.37937927 35.94868469 C44.44458941 32.86169293 44.5036268 29.77461848 44.5625 26.6875 C44.60571237 24.59048636 44.64932752 22.49348097 44.69335938 20.39648438 C44.80024151 15.26440693 44.90158896 10.13224659 45 5 C43.68 5 42.36 5 41 5 C41 3.35 41 1.7 41 0 C45.95 0 50.9 0 56 0 C56 1.65 56 3.3 56 5 C54.35 5 52.7 5 51 5 C51.01571045 6.28052246 51.0314209 7.56104492 51.04760742 8.88037109 C51.10225808 13.67001965 51.13647707 18.45964111 51.16479492 23.24951172 C51.17980192 25.31531421 51.200214 27.38108528 51.22631836 29.44677734 C51.26305961 32.43074338 51.27980764 35.41428507 51.29296875 38.3984375 C51.30845261 39.30927094 51.32393646 40.22010437 51.33988953 41.15853882 C51.3421033 49.75751171 49.73336557 58.31107351 44 65 C36.74632351 70.05805693 30.72704073 70.84518638 22 70 C15.60674568 68.16108008 11.32395222 65.18021331 7.9375 59.453125 C5.20915734 52.31396171 4.71721859 45.29123031 4.8046875 37.71484375 C4.80893234 36.30230064 4.80893234 36.30230064 4.81326294 34.86122131 C4.82435793 31.88651209 4.84944198 28.91211649 4.875 25.9375 C4.88504363 23.90690542 4.89416704 21.87630608 4.90234375 19.84570312 C4.92426216 14.89701664 4.958717 9.94856129 5 5 C3.35 5 1.7 5 0 5 C0 3.35 0 1.7 0 0 Z " fill="#080808" transform="translate(177,255)"/>
<path d="M0 0 C14 0 14 0 17.625 1.5 C25.46127489 9.74871041 26.45140485 21.31674835 26.18359375 32.28125 C25.60147699 40.90153226 23.93896278 48.75803773 19 56 C13.26207632 60.87723513 8.06255388 59 0 59 C0 39.53 0 20.06 0 0 Z " fill="#FCFCFC" transform="translate(110,176)"/>
<path d="M0 0 C16.5 0 33 0 50 0 C50.96070434 2.88211302 51.10581883 4.69850044 51.0625 7.6875 C51.05347656 8.49574219 51.04445313 9.30398437 51.03515625 10.13671875 C51.02355469 10.75160156 51.01195312 11.36648437 51 12 C49.35 12 47.7 12 46 12 C45.34 10.02 44.68 8.04 44 6 C39.71 5.67 35.42 5.34 31 5 C31 24.47 31 43.94 31 64 C32.65 64 34.3 64 36 64 C36 65.65 36 67.3 36 69 C28.74 69 21.48 69 14 69 C14 67.35 14 65.7 14 64 C15.65 64 17.3 64 19 64 C19 44.53 19 25.06 19 5 C12.565 5.495 12.565 5.495 6 6 C3.53025527 8.84100775 3.53025527 8.84100775 3 12 C1.68 12 0.36 12 -1 12 C-1.08384078 7.72412002 -0.84728203 4.23641013 0 0 Z " fill="#030303" transform="translate(258,171)"/>
<path d="M0 0 C6.93 0 13.86 0 21 0 C21 1.65 21 3.3 21 5 C19.68 5 18.36 5 17 5 C17 24.47 17 43.94 17 64 C29.375 63.505 29.375 63.505 42 63 C42.99 61.02 43.98 59.04 45 57 C46.65 57 48.3 57 50 57 C49.67 60.96 49.34 64.92 49 69 C32.83 69 16.66 69 0 69 C0 67.35 0 65.7 0 64 C1.65 64 3.3 64 5 64 C5 44.53 5 25.06 5 5 C3.35 5 1.7 5 0 5 C0 3.35 0 1.7 0 0 Z " fill="#020202" transform="translate(364,171)"/>
<path d="M0 0 C6.93 0 13.86 0 21 0 C21 1.65 21 3.3 21 5 C19.68 5 18.36 5 17 5 C17 24.47 17 43.94 17 64 C29.375 63.505 29.375 63.505 42 63 C42.99 61.02 43.98 59.04 45 57 C46.65 57 48.3 57 50 57 C49.85904936 58.6254308 49.71207913 60.25034051 49.5625 61.875 C49.48128906 62.77992188 49.40007812 63.68484375 49.31640625 64.6171875 C49 67 49 67 48 69 C32.16 69 16.32 69 0 69 C0 67.35 0 65.7 0 64 C1.65 64 3.3 64 5 64 C5 44.53 5 25.06 5 5 C3.35 5 1.7 5 0 5 C0 3.35 0 1.7 0 0 Z " fill="#020202" transform="translate(415,255)"/>
<path d="M0 0 C7.26 0 14.52 0 22 0 C22 1.65 22 3.3 22 5 C20.35 5 18.7 5 17 5 C17.00666183 5.77959076 17.01332367 6.55918152 17.02018738 7.36239624 C17.08055859 14.74676676 17.12610558 22.13101586 17.15543652 29.51556969 C17.17102331 33.3111063 17.19213188 37.1064372 17.22631836 40.90185547 C17.25916373 44.57178362 17.27690541 48.24151522 17.28463173 51.91157913 C17.29013047 53.30447097 17.30086686 54.69735333 17.31719017 56.09016037 C17.42056233 65.28490597 17.43006461 74.68951449 11.8125 82.4375 C7.29716155 86.55147504 3.073018 88 -3 88 C-3.33 86.68 -3.66 85.36 -4 84 C-3.21625 83.4225 -2.4325 82.845 -1.625 82.25 C2.65745939 78.57932052 3.22320315 75.47255507 4 70 C4.10985449 67.7856836 4.17513192 65.56888493 4.20532227 63.35205078 C4.22526749 62.05115509 4.24521271 60.7502594 4.26576233 59.40994263 C4.28274159 58.0050671 4.29962057 56.60019035 4.31640625 55.1953125 C4.33699997 53.74656616 4.35799704 52.2978255 4.37937927 50.84909058 C4.43435047 47.05160142 4.48386886 43.2540603 4.53222656 39.45648193 C4.58262478 35.57510805 4.63821484 31.69380884 4.69335938 27.8125 C4.80063535 20.20839672 4.90214705 12.60423099 5 5 C3.35 5 1.7 5 0 5 C0 3.35 0 1.7 0 0 Z " fill="#060606" transform="translate(97,255)"/>
<path d="M0 0 C7.92 0 15.84 0 24 0 C24 1.65 24 3.3 24 5 C22.02 5 20.04 5 18 5 C18 24.47 18 43.94 18 64 C19.98 64 21.96 64 24 64 C24 65.65 24 67.3 24 69 C16.41 69 8.82 69 1 69 C1 67.35 1 65.7 1 64 C2.98 64 4.96 64 7 64 C7 44.53 7 25.06 7 5 C4.69 5 2.38 5 0 5 C0 3.35 0 1.7 0 0 Z " fill="#020202" transform="translate(230,171)"/>
<path d="M0 0 C7.92 0 15.84 0 24 0 C24 1.65 24 3.3 24 5 C22.02 5 20.04 5 18 5 C18 24.47 18 43.94 18 64 C19.98 64 21.96 64 24 64 C24 65.65 24 67.3 24 69 C16.41 69 8.82 69 1 69 C1 67.35 1 65.7 1 64 C2.98 64 4.96 64 7 64 C7 44.53 7 25.06 7 5 C4.69 5 2.38 5 0 5 C0 3.35 0 1.7 0 0 Z " fill="#020202" transform="translate(149,171)"/>
<path d="M0 0 C3.5578125 -0.12375 3.5578125 -0.12375 7.1875 -0.25 C7.92508545 -0.28641602 8.6626709 -0.32283203 9.42260742 -0.36035156 C12.96618285 -0.4196903 14.86020758 -0.08925355 17.86328125 1.828125 C21.28670718 5.30787787 22.30794727 7.44902465 22.375 12.25 C22.27392055 17.70107042 21.30935174 20.67945745 18 25 C12.91031955 28.54628198 5.8557269 27.10843939 0 27 C0 18.09 0 9.18 0 0 Z " fill="#FCFCFC" transform="translate(255,260)"/>
<path d="M0 0 C2.23127725 3.34691588 3.38532762 6.71611628 4.625 10.5 C4.85445313 11.17675781 5.08390625 11.85351562 5.3203125 12.55078125 C6.29296917 15.48612014 7 17.88708081 7 21 C2.71 21 -1.58 21 -6 21 C-4.71956255 13.63748468 -2.72382581 6.95501154 0 0 Z " fill="#EEEEEE" transform="translate(380,275)"/>
<path d="M0 0 C2.71609918 2.71609918 3.46920222 5.86595045 4.625 9.4375 C4.85445313 10.11876953 5.08390625 10.80003906 5.3203125 11.50195312 C6.29042613 14.44982818 7 16.87666842 7 20 C2.71 20 -1.58 20 -6 20 C-5.3808361 17.415141 -4.75492318 14.83223828 -4.125 12.25 C-3.95097656 11.52039063 -3.77695312 10.79078125 -3.59765625 10.0390625 C-2.72091402 6.46714972 -1.87313177 3.20626159 0 0 Z " fill="#F0F0F0" transform="translate(328,192)"/>
</svg>
