<svg version="1.1" id="Layer_1" xmlns="http://www.w3.org/2000/svg" xmlns:xlink="http://www.w3.org/1999/xlink" x="0px" y="0px"
	 width="100%" viewBox="0 0 784 1024" enable-background="new 0 0 784 1024" xml:space="preserve">
<path fill="#FFFFFF" opacity="1.000000" stroke="none" 
	d="
M750.161804,477.328217 
	C751.404541,490.232880 751.133240,502.725708 751.366333,515.209778 
	C751.809448,538.943420 748.551270,562.244263 743.870605,585.411499 
	C735.414856,627.263245 719.612427,666.214111 696.892029,702.278870 
	C682.754822,724.719482 666.054199,745.148865 647.262329,763.983582 
	C621.153870,790.151855 591.711853,811.619507 559.007568,828.608093 
	C534.734619,841.216797 509.265259,850.829041 482.670349,857.455261 
	C449.181000,865.799255 415.216888,869.458069 380.759583,867.949829 
	C364.304047,867.229553 348.007050,864.865051 331.754578,862.051208 
	C308.705017,858.060486 286.391968,851.537720 264.749420,842.898926 
	C233.819885,830.553162 205.210983,814.052673 178.865356,793.566284 
	C160.378433,779.190735 143.550766,763.122803 128.236786,745.494141 
	C111.929802,726.722412 97.870941,706.319214 85.823708,684.543945 
	C73.374542,662.042114 63.289188,638.494995 56.110298,613.841370 
	C50.735016,595.381653 47.096226,576.523010 44.311283,557.404175 
	C41.771545,539.968750 42.004593,522.622192 41.683632,505.195557 
	C41.277336,483.135834 44.737053,461.511383 49.044239,439.999817 
	C55.516491,407.675201 66.600693,376.902527 81.931496,347.790314 
	C96.805450,319.545593 115.185684,293.713837 137.157196,270.395325 
	C157.026688,249.307663 178.981125,230.816696 203.179626,215.001785 
	C218.802399,204.791534 235.273376,196.004135 252.307007,188.381714 
	C275.272705,178.104797 299.104095,170.357437 323.740753,165.172455 
	C354.699158,158.657013 386.073334,156.240189 417.558014,158.228470 
	C456.258179,160.672409 493.882904,168.918793 529.870483,183.664230 
	C567.602844,199.124603 601.831665,220.257324 632.244995,247.552826 
	C663.405945,275.519348 689.006042,307.777954 708.814514,344.683044 
	C719.850586,365.244324 728.993347,386.532074 735.634399,408.935730 
	C741.583557,429.005280 747.041382,449.128296 748.458008,470.137329 
	C748.611328,472.410461 749.565002,474.629639 750.161804,477.328217 
M170.689911,753.809937 
	C190.783905,773.288269 213.435638,789.366211 237.816620,802.884766 
	C262.921173,816.804382 289.553070,827.291504 317.499603,833.908630 
	C337.362030,838.611633 357.505066,841.788269 377.992767,843.066650 
	C402.070526,844.568909 425.859711,842.911438 449.561920,839.095642 
	C471.246552,835.604614 492.338440,829.824402 512.883911,822.015503 
	C536.477112,813.048218 558.785339,801.614929 579.736816,787.551941 
	C601.382507,773.023071 621.026184,756.175293 638.793762,737.065857 
	C661.997559,712.109558 680.823425,684.213074 695.390320,653.476685 
	C704.868530,633.477600 712.301147,612.696533 717.377197,591.107361 
	C722.755554,568.232849 726.168274,545.083313 726.766052,521.586426 
	C727.180969,505.276459 726.275696,489.048706 724.272705,472.791321 
	C721.722595,452.093414 717.522400,431.766876 711.059448,412.075592 
	C701.064270,381.622162 687.172363,352.945007 668.876526,326.433594 
	C648.749146,297.268250 624.795410,271.836517 596.745117,250.242844 
	C561.185181,222.868118 521.439575,203.900833 478.134796,192.622101 
	C458.201813,187.430557 437.817505,184.297943 417.161926,182.965561 
	C391.953094,181.339493 366.967926,182.697311 342.109833,186.950150 
	C322.252655,190.347412 302.880219,195.520599 283.919952,202.392242 
	C264.453064,209.447510 245.807449,218.183426 228.073532,228.808609 
	C204.140778,243.147781 182.283020,260.127991 162.574844,279.977997 
	C147.148010,295.515869 133.109406,312.157135 121.128456,330.401550 
	C102.308060,359.060974 88.005371,389.845459 78.667770,422.970703 
	C71.773994,447.426483 67.771378,472.312775 66.374336,497.565582 
	C64.750969,526.909668 67.618263,555.992737 74.075455,584.679199 
	C78.095261,602.537415 83.197624,620.107239 90.316406,636.976685 
	C99.439949,658.596863 110.325462,679.260620 123.677208,698.686951 
	C137.325485,718.544800 152.730240,736.767517 170.689911,753.809937 
z"/>
<path fill="#FFFFFF" opacity="1.000000" stroke="none" 
	d="
M318.108429,409.220398 
	C319.435730,428.864044 325.421234,446.728058 333.435364,464.016602 
	C343.711731,486.185272 358.295471,505.289825 375.456116,522.489502 
	C387.397125,534.457642 401.139618,544.099670 415.755341,552.515320 
	C434.367462,563.232056 454.582794,569.709412 475.396606,574.302795 
	C482.470886,575.864075 489.892548,576.020081 497.091980,577.029297 
	C505.345032,578.186218 513.535950,578.851990 521.833130,578.671448 
	C522.832397,578.649719 523.834534,578.699463 524.831726,578.647278 
	C532.477539,578.247253 532.577209,578.259644 531.164917,586.236450 
	C528.509888,601.232544 525.676453,616.197144 523.012390,631.191711 
	C520.607666,644.726807 518.357422,658.289246 515.979004,671.829102 
	C515.292908,675.734985 514.332703,679.592285 513.624146,683.494751 
	C513.164612,686.025513 511.725067,686.794800 509.355591,686.372803 
	C491.732391,683.234253 474.116394,680.054260 456.481110,676.984985 
	C442.920898,674.624878 429.322601,672.482605 415.765686,670.104065 
	C402.554596,667.786316 389.387787,665.216003 376.176819,662.897400 
	C364.904816,660.919128 353.462006,659.721680 342.341156,657.123962 
	C329.071167,654.024292 315.526825,652.757568 302.216095,649.985291 
	C289.090179,647.251526 275.765503,645.485046 262.558105,643.125732 
	C250.816223,641.028259 239.126160,638.641357 227.388855,636.516785 
	C224.606873,636.013123 223.598755,634.790161 224.407166,632.081543 
	C226.838272,623.936157 227.082352,615.413635 228.694427,607.116760 
	C231.345551,593.472107 233.511780,579.733887 235.946533,566.046448 
	C239.248444,547.484314 242.486145,528.909485 245.981552,510.383545 
	C249.605896,491.174225 252.741104,471.875488 256.237610,452.645264 
	C259.018921,437.348511 261.632843,421.976013 264.101776,406.600403 
	C267.117035,387.822357 271.040863,369.191956 274.384796,350.464325 
	C277.066315,335.446259 279.427612,320.371246 282.011475,305.335358 
	C283.416656,297.158539 285.020844,289.016113 286.474091,280.847260 
	C287.246582,276.505066 288.821198,275.594482 293.636505,276.776611 
	C303.757385,279.261139 314.221466,280.337250 324.533966,282.055817 
	C330.249847,283.008362 335.954102,284.038452 341.644073,285.135010 
	C344.842316,285.751343 345.709076,287.294830 343.981354,290.449219 
	C333.548523,309.496857 325.599457,329.576782 320.995422,350.786896 
	C316.851837,369.876007 315.869019,389.276154 318.108429,409.220398 
M425.466766,592.205017 
	C420.213684,591.522461 414.974884,590.501648 409.702362,590.278442 
	C406.286194,590.133789 402.769989,590.931030 399.387939,591.699463 
	C392.550385,593.252991 388.154144,597.370850 387.518768,604.605469 
	C386.928650,611.324524 390.542084,616.059326 395.838013,619.399048 
	C403.831024,624.439575 412.817902,626.929932 422.155975,627.549805 
	C428.068909,627.942383 434.141510,628.482178 439.971497,626.533752 
	C445.651093,624.635559 450.079895,621.263977 451.465149,615.159424 
	C452.934967,608.682129 449.892212,603.896484 444.900055,600.144226 
	C439.369385,595.987244 433.070190,593.586853 425.466766,592.205017 
M303.724640,603.774231 
	C307.095490,608.260376 312.287567,605.925537 316.813690,607.764343 
	C316.673096,606.542480 316.754242,605.853455 316.508057,605.313660 
	C311.614441,594.583069 306.675964,583.873108 301.766632,573.149658 
	C301.012512,571.502502 299.891174,570.535461 298.006317,570.337341 
	C295.039520,570.025574 291.978119,569.906982 289.163666,569.037170 
	C285.853973,568.014221 283.962006,569.350159 281.790588,571.529968 
	C277.467010,575.870117 273.218018,580.283142 268.675110,584.427490 
	C264.649963,588.099487 260.054260,591.544739 257.241272,597.345459 
	C262.707245,597.416870 267.631683,601.426514 271.897644,596.452698 
	C274.534851,593.377869 277.748322,593.357117 280.980133,594.235779 
	C285.626251,595.499084 290.336639,596.209717 295.083771,596.711853 
	C299.246765,597.152222 302.436279,598.593201 303.724640,603.774231 
M357.759979,608.310547 
	C358.746094,602.601807 359.932831,596.917725 360.638123,591.174500 
	C361.021027,588.056702 362.394928,587.195129 365.228577,587.604553 
	C369.489777,588.220337 373.773285,588.685852 378.028320,589.338928 
	C379.748840,589.603027 381.608795,590.094238 382.112213,587.879517 
	C382.685791,585.356079 380.483521,584.713318 378.738007,584.524658 
	C366.050049,583.153198 353.611359,580.325317 341.041992,578.273193 
	C337.253845,577.654663 333.432831,576.034058 329.516724,577.654663 
	C329.202179,579.870483 330.568298,580.244080 332.012482,580.919983 
	C335.399719,582.505249 339.106232,582.529907 342.630890,583.403320 
	C348.337982,584.817444 349.681366,586.684082 347.596313,592.162598 
	C345.441986,597.823303 345.921265,603.912964 344.387543,609.660767 
	C344.202850,610.352783 344.453735,611.684937 344.926727,611.942871 
	C347.837982,613.530518 351.049225,614.544861 354.338776,614.482300 
	C357.821686,614.416016 356.505554,610.948853 357.759979,608.310547 
M480.391815,636.858521 
	C488.032135,638.262695 495.682312,639.616211 503.306122,641.104858 
	C505.343658,641.502625 507.759521,642.270081 508.248169,639.631714 
	C508.810974,636.592651 506.035980,636.660461 503.877472,636.295593 
	C495.577057,634.892822 487.287201,633.423279 479.010315,631.887512 
	C476.097778,631.347168 474.558014,630.305603 475.263306,626.471069 
	C476.654083,618.910034 479.298737,611.501282 478.968811,603.753967 
	C475.368042,601.163696 471.492310,601.020630 467.395203,601.284485 
	C466.684937,603.506714 465.825836,605.508301 465.417419,607.597961 
	C464.058960,614.548157 464.090576,621.724670 461.623230,628.519104 
	C460.671844,631.139099 461.034058,633.378601 464.942810,634.201843 
	C469.792511,635.223328 474.640472,636.101685 480.391815,636.858521 
z"/>
<path fill="#FFFFFF" opacity="1.000000" stroke="none" 
	d="
M573.485718,348.402985 
	C571.285339,360.245026 569.141846,371.653931 567.100647,383.081116 
	C564.710266,396.462585 562.455872,409.868408 560.057861,423.248444 
	C556.613220,442.468781 553.024597,461.663422 549.621338,480.890991 
	C545.720520,502.930176 541.895752,524.983398 538.188538,547.055847 
	C537.557068,550.815430 536.207153,554.405029 536.065125,558.295959 
	C535.945740,561.566711 533.671204,562.625793 530.492432,562.402161 
	C519.337341,561.617310 508.403625,559.550720 497.872528,555.911316 
	C483.517731,550.950500 469.910858,544.399353 457.527893,535.431580 
	C440.683533,523.232849 427.299561,508.009644 416.758942,490.130737 
	C407.206268,473.927612 400.796661,456.548431 397.276123,438.159607 
	C394.017548,421.138916 396.192566,404.417114 401.667969,388.098511 
	C413.034241,354.222778 436.786835,330.705994 465.847351,311.675873 
	C469.742859,309.124878 473.731171,308.421234 478.607574,309.318207 
	C503.369720,313.873138 528.219666,317.950165 553.034302,322.220673 
	C559.573364,323.346008 566.081116,324.660828 572.633179,325.699829 
	C576.109863,326.251129 576.921631,328.121460 576.349609,331.289978 
	C575.348083,336.838013 574.500183,342.413788 573.485718,348.402985 
z"/>
<path fill="#FFFFFF" opacity="1.000000" stroke="none" 
	d="
M244.935059,750.937012 
	C227.969910,767.110229 203.628174,764.258972 187.812119,749.616882 
	C180.877151,743.196472 175.198517,735.969543 173.091736,726.424255 
	C167.866364,702.749695 189.733276,679.771912 209.288712,679.418274 
	C230.525452,679.034180 245.051895,689.022888 254.503006,706.531128 
	C261.137817,718.822144 258.834412,731.690063 251.204407,743.395020 
	C249.477676,746.043945 247.686172,748.661194 244.935059,750.937012 
M230.697586,693.511963 
	C224.956314,691.351318 219.069305,691.296265 213.703033,694.052917 
	C201.574142,700.283447 192.451355,709.583435 187.959854,722.661011 
	C183.474716,735.720032 196.292969,751.284363 208.946350,748.677795 
	C222.863190,745.811096 232.489883,737.240601 239.122635,725.330994 
	C242.925430,718.502747 245.367767,711.055603 240.972443,703.056274 
	C238.657654,698.843384 234.996719,696.480286 230.697586,693.511963 
z"/>
<path fill="#FFFFFF" opacity="1.000000" stroke="none" 
	d="
M631.468506,650.401978 
	C647.178894,660.884033 653.556946,675.995117 649.189087,693.189270 
	C647.812805,698.606873 645.312378,703.759033 641.704956,708.258545 
	C635.873352,715.532349 630.108032,722.862000 624.457947,730.277222 
	C622.448120,732.914856 620.799988,733.470093 617.964905,731.210449 
	C600.398926,717.209595 582.732117,703.334900 565.050598,689.479797 
	C562.711609,687.646973 562.412659,685.876038 564.253784,683.593079 
	C572.291138,673.626953 579.912659,663.291321 588.431152,653.756287 
	C598.690247,642.273132 615.988647,640.628906 628.962891,649.017761 
	C629.659668,649.468262 630.421143,649.818848 631.468506,650.401978 
M621.604187,667.885681 
	C620.233459,666.943848 618.867798,665.994507 617.491211,665.061218 
	C605.847290,657.166748 596.065430,658.415100 586.657959,669.021484 
	C585.557617,670.261963 584.723389,671.769897 583.510620,672.873413 
	C579.465576,676.554260 581.106323,678.995483 584.778503,681.783081 
	C596.294861,690.525330 607.662476,699.465576 619.009521,708.428101 
	C626.444946,714.301025 626.384277,714.377869 632.195496,706.859070 
	C639.262695,697.715210 639.573975,688.817749 632.965088,679.305664 
	C630.008850,675.050781 626.269470,671.487610 621.604187,667.885681 
z"/>
<path fill="#FFFFFF" opacity="1.000000" stroke="none" 
	d="
M182.995148,667.353760 
	C175.375381,669.087952 169.182343,666.797607 163.177780,661.964783 
	C155.057312,673.760010 150.280182,687.124695 142.523407,700.044617 
	C138.715591,693.546875 135.484100,688.193665 132.433853,682.739136 
	C131.383377,680.860779 132.805695,679.192810 133.695496,677.648621 
	C137.928787,670.302246 142.273697,663.020081 146.490585,655.664429 
	C147.464508,653.965576 148.091309,652.067688 149.171234,649.587708 
	C139.308090,653.930176 131.266632,660.154907 121.809601,664.702881 
	C118.553749,660.028992 116.740204,654.605286 113.157227,650.458252 
	C113.754189,648.198303 115.446030,647.394897 117.008057,646.480530 
	C135.978455,635.375854 154.954880,624.281433 173.922989,613.172852 
	C176.099792,611.897949 178.441833,610.005981 180.194473,613.438354 
	C185.251053,623.341003 191.816086,632.355408 196.432236,642.563782 
	C201.174667,653.051331 193.537231,665.319031 182.995148,667.353760 
M185.012589,638.950500 
	C184.561310,637.882568 184.151093,636.795105 183.651840,635.750061 
	C181.124573,630.460449 180.783844,630.417480 175.649521,633.558044 
	C171.272049,636.235779 166.810349,638.775879 162.385040,641.375305 
	C157.564056,644.207275 157.450836,646.585938 161.974625,650.041321 
	C169.505890,655.793945 182.773682,649.832092 185.012589,638.950500 
z"/>
<path fill="#FFFFFF" opacity="1.000000" stroke="none" 
	d="
M475.891357,254.685654 
	C468.876007,240.101120 482.134369,224.913208 498.686401,228.125565 
	C501.918762,228.752899 505.170380,229.775803 508.136475,231.194580 
	C520.858948,237.280151 521.514282,254.559265 512.692078,261.209412 
	C511.261414,262.287872 510.024963,263.623962 508.726807,264.815155 
	C518.176086,279.085236 516.759216,291.265350 504.827118,299.610138 
	C495.162811,306.368958 478.029022,303.123505 470.628540,293.333191 
	C464.186951,284.811401 462.836578,269.470062 479.021729,259.947784 
	C479.085510,257.701233 476.848602,256.779480 475.891357,254.685654 
M489.766785,289.854401 
	C496.371246,289.635803 501.006744,284.479279 500.616364,277.785278 
	C500.313080,272.583832 495.802734,268.719849 490.415070,269.045868 
	C485.922058,269.317719 482.799591,272.512360 482.147675,277.504303 
	C481.173279,284.965759 482.662506,287.648071 489.766785,289.854401 
M488.977448,245.490219 
	C487.715057,249.618530 488.592712,253.143951 492.294586,255.522614 
	C496.035675,257.926514 500.283844,256.752899 502.620239,252.947922 
	C504.824371,249.358337 504.277039,244.721863 501.394836,242.567169 
	C497.543701,239.688217 492.530762,240.612122 488.977448,245.490219 
z"/>
<path fill="#FFFFFF" opacity="1.000000" stroke="none" 
	d="
M421.256958,233.423553 
	C430.536072,217.592468 449.324921,214.626740 461.036896,226.703384 
	C464.592346,230.369537 465.296875,234.822617 465.628174,239.508759 
	C465.671295,240.118561 465.532593,241.097260 465.140442,241.325958 
	C461.729187,243.315155 458.017242,241.895889 454.437073,242.085083 
	C452.418976,242.191711 451.415497,240.867523 451.111328,239.043442 
	C450.475830,235.231842 448.437836,233.100922 444.428070,233.012527 
	C440.342468,232.922485 437.320068,234.595352 435.596649,238.299072 
	C434.560760,240.525284 433.425385,242.770920 433.447418,245.248825 
	C434.554718,246.571762 435.710052,245.772675 436.749176,245.526016 
	C447.699677,242.926651 459.045776,250.085602 461.290710,261.050537 
	C463.874146,273.668732 460.178406,284.558411 451.343567,290.360352 
	C438.681000,298.676025 421.760223,293.087158 416.123840,279.069061 
	C411.958862,268.710571 414.073212,258.592468 416.120453,248.340805 
	C417.138123,243.244812 418.800842,238.402985 421.256958,233.423553 
M432.600372,260.165253 
	C429.521545,264.869110 428.229584,269.883362 430.538025,275.252319 
	C431.835480,278.270050 434.029083,280.477844 437.596588,280.814209 
	C441.205719,281.154541 443.502197,279.520874 445.212982,276.404022 
	C447.122284,272.925537 447.767731,269.247620 447.637939,265.401550 
	C447.503052,261.404724 445.642639,258.397247 441.846649,256.871124 
	C438.245300,255.423264 435.382935,256.725372 432.600372,260.165253 
z"/>
<path fill="#FFFFFF" opacity="1.000000" stroke="none" 
	d="
M163.558838,561.627747 
	C165.397385,568.437134 167.307404,574.804504 168.784439,581.270813 
	C170.012604,586.647461 170.219696,592.191772 168.462494,597.501465 
	C165.732941,605.749207 158.416702,607.737183 151.119812,608.975952 
	C144.135452,610.161743 137.837738,607.901550 133.228012,602.379883 
	C129.248932,597.613708 126.378853,592.087036 124.944252,586.021362 
	C124.163109,582.718628 122.778900,582.125183 119.664101,583.033569 
	C112.017784,585.263550 104.240974,587.047546 96.601448,589.298645 
	C93.378105,590.248413 91.877869,589.300781 91.219894,586.221436 
	C90.699776,583.787231 90.124504,581.362122 89.484070,578.956787 
	C87.801369,572.637085 87.806625,572.731995 94.132744,570.987976 
	C114.618790,565.340271 135.090225,559.639282 155.555389,553.916199 
	C160.988419,552.396851 161.775818,553.073853 163.558838,561.627747 
M157.721130,585.101807 
	C158.352127,583.944824 159.262360,582.856506 159.566513,581.619141 
	C160.998825,575.791809 158.065125,572.810181 152.277756,574.211914 
	C147.115601,575.462158 141.982178,576.839111 136.864182,578.261353 
	C131.772049,579.676270 131.279922,581.032349 133.881042,585.643372 
	C134.724792,587.139160 135.857971,588.258179 137.343597,589.122070 
	C143.623901,592.773987 150.850021,591.553406 157.721130,585.101807 
z"/>
<path fill="#FFFFFF" opacity="1.000000" stroke="none" 
	d="
M574.770142,758.659790 
	C579.794495,754.609131 584.550110,750.772583 589.563110,746.728455 
	C591.820251,749.636963 593.817261,752.210205 596.142151,755.205933 
	C592.558167,759.122375 587.919861,761.388855 583.801575,764.318909 
	C577.297607,768.946045 570.791199,773.571594 564.366394,778.307129 
	C562.301086,779.829407 560.780396,780.329651 559.029907,777.829407 
	C545.861938,759.021667 532.626343,740.261169 519.384094,721.505554 
	C517.868713,719.359131 517.814148,717.719910 520.196533,716.081909 
	C530.068848,709.294189 539.759827,702.236389 549.747620,695.625671 
	C554.567810,692.435364 555.117249,698.380798 557.320190,700.243347 
	C559.870483,702.399597 557.418274,704.002625 555.403442,704.988281 
	C549.407166,707.921448 543.831299,711.477844 538.305603,715.999573 
	C542.014099,721.594666 545.334229,727.278809 550.100891,732.279053 
	C556.167175,729.893494 560.728149,725.475098 565.698914,721.677429 
	C566.966370,720.709045 568.257202,718.597290 569.880432,719.876709 
	C572.164856,721.677368 574.354187,723.988892 574.975098,726.971497 
	C575.401428,729.019592 573.106079,729.402466 571.772278,730.279541 
	C567.466309,733.110840 563.165771,735.950378 558.856140,738.776062 
	C556.931824,740.037720 555.996521,741.485962 557.569824,743.703735 
	C561.690979,749.513000 565.763367,755.356750 569.733032,761.012817 
	C571.997803,761.106445 573.092468,759.664612 574.770142,758.659790 
z"/>
<path fill="#FFFFFF" opacity="1.000000" stroke="none" 
	d="
M381.743591,267.771484 
	C387.196198,269.336578 392.375916,270.416870 397.690186,270.898499 
	C401.688751,271.260864 403.857056,273.018524 402.400330,277.485229 
	C401.788818,279.360352 401.686279,281.397186 401.289307,283.347687 
	C400.835602,285.576813 399.482849,286.329163 397.258209,285.813293 
	C383.508911,282.624847 369.553864,280.552643 355.632202,278.327972 
	C351.488922,277.665924 351.729401,275.670135 353.072571,272.741058 
	C357.975098,262.049957 367.216797,255.837006 376.503784,249.532516 
	C382.096191,245.736130 388.318237,242.665909 392.421112,236.908081 
	C395.997620,231.888977 395.606415,226.101547 391.298004,223.255280 
	C386.961761,220.390640 381.289001,221.998032 378.131561,226.950134 
	C377.140045,228.505219 376.970917,231.149826 374.106232,230.459641 
	C370.413574,229.569977 366.463531,229.299896 363.332336,226.880707 
	C362.365723,226.133865 362.849182,224.694092 363.239746,223.574585 
	C364.805908,219.085648 367.074188,215.135101 371.221375,212.456329 
	C380.575226,206.414459 397.023010,207.925385 404.248688,215.562454 
	C413.719940,225.573013 412.032684,240.544205 399.842163,250.570358 
	C393.947998,255.418045 387.362793,259.420349 381.157227,263.897888 
	C379.479279,265.108582 377.414368,266.698395 381.743591,267.771484 
z"/>
<path fill="#FFFFFF" opacity="1.000000" stroke="none" 
	d="
M360.411316,758.098145 
	C354.151642,756.036987 354.136993,756.034058 352.946533,761.963440 
	C352.226318,765.550598 351.796631,769.215271 350.808228,772.724487 
	C349.639008,776.875610 351.732880,778.264771 355.206421,778.712158 
	C360.316284,779.370361 365.446167,779.872314 370.557587,780.519409 
	C376.671539,781.293396 372.729340,785.562866 373.057220,788.234192 
	C373.448547,791.422363 371.333679,791.616638 368.817139,791.102783 
	C363.287201,789.973694 357.742004,788.913330 352.184753,787.927917 
	C350.539337,787.636169 348.807434,787.492981 348.314392,789.873474 
	C346.806366,797.154175 344.908813,804.374573 345.060333,811.991333 
	C350.548401,813.971130 356.263031,813.460510 361.833069,814.086548 
	C368.818909,814.871643 368.809479,814.928711 367.458160,821.591125 
	C367.232147,822.705383 367.044312,823.827515 366.816681,825.066589 
	C361.907654,826.069885 357.457794,824.167725 352.909058,823.600220 
	C345.500977,822.676086 338.150421,821.298462 330.764862,820.183228 
	C325.374542,819.369202 324.503906,818.280701 325.631226,813.042175 
	C327.554413,804.105286 327.918518,794.871704 329.940125,786.030579 
	C332.901672,773.078979 333.944000,759.848755 336.739929,746.903198 
	C337.215637,744.700562 338.340668,743.688416 340.582001,744.094543 
	C352.810791,746.310730 365.082825,748.321777 377.243073,750.866455 
	C382.332916,751.931702 378.567566,756.161682 378.970825,758.844543 
	C379.360199,761.434875 377.173370,762.195618 374.874146,761.429321 
	C370.279724,759.898132 365.557648,758.973694 360.411316,758.098145 
z"/>
<path fill="#FFFFFF" opacity="1.000000" stroke="none" 
	d="
M423.143982,814.999084 
	C434.383240,820.579407 443.752441,817.288269 452.377563,810.011108 
	C453.663300,808.926208 454.837585,807.383789 456.643250,808.482727 
	C458.462891,809.590149 457.391968,811.415161 457.304474,813.028748 
	C457.002136,818.602905 453.855194,821.387756 448.764801,823.079895 
	C435.674164,827.431458 422.681366,828.327820 409.865326,822.469971 
	C399.620117,817.787109 392.603821,810.056396 390.301056,798.846313 
	C388.054077,787.907959 388.260529,777.169678 393.822235,766.909729 
	C399.809631,755.864441 409.833801,750.735474 421.196228,747.838684 
	C429.303894,745.771729 437.681610,746.103210 445.953339,747.662781 
	C448.458710,748.135132 451.325867,748.649231 452.016968,751.247437 
	C452.966797,754.818359 452.216217,758.684631 450.647186,761.937439 
	C449.640656,764.024170 447.844330,762.102722 446.550964,761.143005 
	C442.259521,757.958679 438.030487,755.022095 432.168671,755.147644 
	C421.728821,755.371216 414.026154,760.760376 411.187073,770.866211 
	C407.381195,784.413574 407.861542,797.470947 416.418701,809.358215 
	C418.084015,811.671631 420.205505,813.560791 423.143982,814.999084 
z"/>
<path fill="#FFFFFF" opacity="1.000000" stroke="none" 
	d="
M543.440247,256.424866 
	C540.482361,258.950897 530.552246,256.753754 529.450378,253.700775 
	C528.990784,252.427338 529.717102,251.466766 530.247192,250.444626 
	C534.563843,242.120880 541.444946,237.627090 550.779419,238.120071 
	C560.122620,238.613510 567.740967,242.651855 572.043640,251.495621 
	C575.273621,258.134491 573.291321,266.511200 567.395142,271.370361 
	C566.124512,272.417542 564.740479,273.327179 563.151367,274.488159 
	C563.746826,275.225494 564.173645,275.890991 564.729431,276.421295 
	C571.045837,282.448608 572.778870,289.514832 569.783081,297.772034 
	C566.637573,306.441895 560.153992,311.264771 551.476929,312.977936 
	C537.815430,315.675140 524.427307,306.786041 522.061096,293.884155 
	C521.116760,288.735168 521.950256,287.736877 527.271729,287.687500 
	C528.935791,287.672058 530.601013,287.736908 532.264404,287.701538 
	C534.719910,287.649353 536.341309,288.232361 536.549805,291.224457 
	C536.736877,293.908936 537.956665,296.444214 540.363892,297.916779 
	C542.964722,299.507812 545.362244,301.607666 548.995483,299.469177 
	C553.513916,296.809662 555.769958,293.043091 555.718689,288.064148 
	C555.678955,284.215729 553.982849,280.892242 550.093384,279.402100 
	C548.419250,278.760681 546.554382,278.597961 544.764343,278.285706 
	C543.765381,278.111450 542.782776,278.019653 542.320374,276.913818 
	C541.120972,274.046021 545.729980,266.856659 548.986023,266.703461 
	C553.245911,266.503052 556.541443,264.812866 557.562683,260.521423 
	C558.437561,256.844879 557.623901,253.546448 553.492798,251.995087 
	C548.878418,250.262222 545.804565,252.085693 543.440247,256.424866 
z"/>
<path fill="#FFFFFF" opacity="1.000000" stroke="none" 
	d="
M275.487732,802.714661 
	C272.665619,800.793518 269.876099,799.799988 266.970184,798.982117 
	C264.718262,798.348267 263.774994,797.029724 264.909912,794.470337 
	C269.142944,784.924683 273.209717,775.305176 277.329346,765.709229 
	C280.932892,757.315613 284.434784,748.876770 288.164490,740.539673 
	C289.621307,737.283264 288.733215,735.625610 285.475922,734.641663 
	C282.140442,733.634033 278.856049,732.448364 275.579712,731.256958 
	C273.356384,730.448486 270.822723,729.678833 272.612579,726.408997 
	C274.115906,723.662781 274.109528,718.853271 279.468933,721.129517 
	C282.682007,722.494202 285.855042,723.952759 289.058777,725.339783 
	C299.117035,729.694336 309.114777,734.198181 319.262238,738.334351 
	C329.053040,742.325134 329.186127,742.340271 323.648651,751.702820 
	C318.948792,751.606018 315.861938,747.792664 311.876099,746.010437 
	C308.002106,744.278137 306.149231,744.600159 304.412994,748.773010 
	C297.269531,765.941406 289.740784,782.949158 282.496246,800.076294 
	C281.060059,803.471680 279.386322,805.125671 275.487732,802.714661 
z"/>
<path fill="#FFFFFF" opacity="1.000000" stroke="none" 
	d="
M506.803894,769.272217 
	C510.507629,778.585571 514.013611,787.564270 517.620178,796.502319 
	C519.179993,800.368042 519.422058,803.383972 514.042419,803.774414 
	C513.398926,803.821167 512.789307,804.222656 512.143738,804.372742 
	C508.963989,805.111877 506.161469,808.895203 503.036224,807.280823 
	C500.161346,805.795715 499.936157,801.579224 498.710876,798.545349 
	C492.426605,782.985291 486.266754,767.371399 480.356842,751.665894 
	C478.651672,747.134338 476.582489,746.560425 472.595245,748.887756 
	C468.781128,751.113953 464.651123,752.798828 460.893280,754.609314 
	C460.160675,753.954163 459.806396,753.784790 459.692902,753.514404 
	C456.217407,745.233643 456.185913,745.146362 464.736633,741.640808 
	C478.407532,736.036255 492.134827,730.569336 505.827850,725.018616 
	C508.729462,723.842346 510.678467,724.299927 511.254913,727.739319 
	C511.725220,730.545288 515.658081,733.966614 509.808014,735.573792 
	C506.444946,736.497620 503.086914,737.461731 499.682831,738.207947 
	C496.273254,738.955322 495.374481,740.558411 496.750641,743.893494 
	C500.171997,752.185364 503.363251,760.572266 506.803894,769.272217 
z"/>
<path fill="#FFFFFF" opacity="1.000000" stroke="none" 
	d="
M321.524963,256.661621 
	C323.590271,245.527176 325.548431,234.809082 327.622528,223.456146 
	C321.277802,224.314270 316.217529,228.470154 310.003906,227.494247 
	C308.782654,223.431183 310.431793,219.797333 311.022675,216.112396 
	C311.295593,214.410416 313.054718,214.130875 314.527924,213.766434 
	C321.827515,211.960800 327.986633,208.382385 332.933319,202.583694 
	C336.238586,198.709091 340.334839,200.986694 344.005188,202.084991 
	C347.624298,203.167969 345.946533,206.044052 345.574036,208.370956 
	C343.792206,219.502014 342.651794,230.788513 340.016663,241.714249 
	C337.713684,251.262772 336.822998,260.957245 335.105530,270.551117 
	C334.620697,273.259491 333.532623,274.875763 330.486786,274.359589 
	C327.706299,273.888428 324.910309,273.509521 322.127899,273.049194 
	C319.693329,272.646393 319.420166,270.854004 319.681366,268.898254 
	C320.208496,264.951263 320.833313,261.017334 321.524963,256.661621 
z"/>
<path fill="#FFFFFF" opacity="1.000000" stroke="none" 
	d="
M438.251495,607.508423 
	C438.386475,618.860718 435.070374,622.177246 424.207794,622.314087 
	C419.358978,622.375122 414.683075,622.099548 410.138275,620.026306 
	C403.259583,616.888123 399.445038,612.238525 399.896240,606.862671 
	C400.384521,601.044861 403.468994,597.225403 411.462921,595.928711 
	C420.297913,594.495483 428.909302,596.216675 435.755859,602.856506 
	C436.947052,604.011719 437.968811,605.341980 438.251495,607.508423 
z"/>
<path fill="#FFFFFF" opacity="1.000000" stroke="none" 
	d="
M285.300659,582.272339 
	C287.604401,580.463623 288.700836,577.762573 291.853058,576.823181 
	C294.879669,581.319580 296.903259,586.095276 297.546112,592.303467 
	C291.494080,591.295349 285.935730,591.604919 280.763275,589.075439 
	C280.900635,585.846436 283.421265,584.475647 285.300659,582.272339 
z"/>
</svg>